<svg width="454" height="50" viewBox="0 0 454 50" fill="none" xmlns="http://www.w3.org/2000/svg">
<rect width="454" height="50" rx="5" fill="#FEE500"/>
<path d="M190.812 19.4961C190.812 23.7617 189.641 27.418 184.438 30.0117L183.484 28.6992C185.93 27.4883 187.383 26.082 188.203 24.4023L183.812 24.8242L183.594 23.3242L188.734 22.9961C188.914 22.3398 189.023 21.6445 189.078 20.9023H184.328V19.4961H190.812ZM194.531 18.1055V23.6367H196.625V25.0586H194.531V32.1992H192.797V18.1055H194.531ZM204.641 19.4961C204.641 23.7617 203.469 27.418 198.266 30.0117L197.312 28.6992C199.758 27.4883 201.211 26.082 202.031 24.4023L197.641 24.8242L197.422 23.3242L202.562 22.9961C202.742 22.3398 202.852 21.6445 202.906 20.9023H198.156V19.4961H204.641ZM208.359 18.1055V23.6367H210.453V25.0586H208.359V32.1992H206.625V18.1055H208.359ZM217.547 18.9023C220.578 18.9023 222.812 20.418 222.812 22.7148C222.812 24.832 220.992 26.2461 218.406 26.4961V29.0898H224.031V30.5117H211.125V29.0898H216.688V26.4961C214.117 26.2461 212.297 24.832 212.312 22.7148C212.297 20.418 214.531 18.9023 217.547 18.9023ZM217.547 20.3086C215.484 20.293 214 21.2305 214.016 22.7148C214 24.2461 215.484 25.1523 217.547 25.1523C219.641 25.1523 221.109 24.2461 221.109 22.7148C221.109 21.2305 219.641 20.293 217.547 20.3086ZM241.656 29.1523V30.5898H228.75V29.1523H234.312V26.8555H230.281V22.2305H238.406V20.4805H230.25V19.0742H240.125V23.6055H232.016V25.4336H240.453V26.8555H236.031V29.1523H241.656ZM253.812 19.4805V21.0742C253.812 22.9648 253.812 24.918 253.297 27.8867L251.531 27.7305C252.078 24.9492 252.078 22.9023 252.078 21.0742V20.8867H243.938V19.4805H253.812ZM255.453 28.8711V30.293H242.578V28.8711H255.453ZM268.172 18.1211V28.3242H266.422V18.1211H268.172ZM268.562 30.543V31.9492H258.828V27.293H260.578V30.543H268.562ZM260.469 19.043C262.609 19.043 264.266 20.5273 264.266 22.5742C264.266 24.668 262.609 26.1211 260.469 26.1211C258.312 26.1211 256.656 24.668 256.656 22.5742C256.656 20.5273 258.312 19.043 260.469 19.043ZM260.469 20.5586C259.266 20.5586 258.344 21.3555 258.359 22.5742C258.344 23.8242 259.266 24.6055 260.469 24.6055C261.641 24.6055 262.562 23.8242 262.562 22.5742C262.562 21.3555 261.641 20.5586 260.469 20.5586Z" fill="#181600"/>
<path fill-rule="evenodd" clip-rule="evenodd" d="M20.5 24.375C20.5 18.3038 26.32 13.75 33 13.75C39.68 13.75 45.5 18.3038 45.5 24.375C45.5 30.4462 39.68 35 33 35C32.3425 35 31.6983 34.9583 31.0675 34.875L27.4425 37.29C27.2368 37.427 26.9951 37.4999 26.748 37.4996C26.5009 37.4993 26.2594 37.4258 26.054 37.2882C25.8487 37.1507 25.6887 36.9554 25.5943 36.727C25.4999 36.4986 25.4754 36.2474 25.5238 36.005L26.08 33.2288C22.785 31.3625 20.5 28.1462 20.5 24.375ZM30.5 18.75C30.8315 18.75 31.1495 18.8817 31.3839 19.1161C31.6183 19.3505 31.75 19.6685 31.75 20V28.75C31.75 29.0815 31.6183 29.3995 31.3839 29.6339C31.1495 29.8683 30.8315 30 30.5 30C30.1685 30 29.8505 29.8683 29.6161 29.6339C29.3817 29.3995 29.25 29.0815 29.25 28.75V20C29.25 19.6685 29.3817 19.3505 29.6161 19.1161C29.8505 18.8817 30.1685 18.75 30.5 18.75ZM31.75 25.625C31.75 25.3487 31.8413 25.0725 32.025 24.8438L34.525 21.7188C34.7359 21.4718 35.0346 21.3166 35.3579 21.286C35.6813 21.2554 36.0038 21.3519 36.2572 21.555C36.5107 21.7581 36.6751 22.0518 36.7158 22.374C36.7564 22.6962 36.6701 23.0216 36.475 23.2812L34.6 25.625L36.475 27.9688C36.5837 28.0961 36.6658 28.244 36.7162 28.4036C36.7667 28.5633 36.7846 28.7314 36.7689 28.8981C36.7531 29.0648 36.704 29.2266 36.6245 29.374C36.545 29.5214 36.4367 29.6512 36.306 29.7559C36.1754 29.8606 36.025 29.938 35.8639 29.9835C35.7027 30.029 35.5341 30.0416 35.368 30.0206C35.2018 29.9997 35.0416 29.9456 34.8968 29.8615C34.752 29.7774 34.6256 29.6651 34.525 29.5312L32.025 26.4062C31.8472 26.1847 31.7502 25.9091 31.75 25.625Z" fill="#181600"/>
<path fill-rule="evenodd" clip-rule="evenodd" d="M20.5 24.375C20.5 18.3038 26.32 13.75 33 13.75C39.68 13.75 45.5 18.3038 45.5 24.375C45.5 30.4462 39.68 35 33 35C32.3425 35 31.6983 34.9583 31.0675 34.875L27.4425 37.29C27.2368 37.427 26.9951 37.4999 26.748 37.4996C26.5009 37.4993 26.2594 37.4258 26.054 37.2882C25.8487 37.1507 25.6887 36.9554 25.5943 36.727C25.4999 36.4986 25.4754 36.2474 25.5238 36.005L26.08 33.2288C22.785 31.3625 20.5 28.1462 20.5 24.375ZM30.5 18.75C30.8315 18.75 31.1495 18.8817 31.3839 19.1161C31.6183 19.3505 31.75 19.6685 31.75 20V28.75C31.75 29.0815 31.6183 29.3995 31.3839 29.6339C31.1495 29.8683 30.8315 30 30.5 30C30.1685 30 29.8505 29.8683 29.6161 29.6339C29.3817 29.3995 29.25 29.0815 29.25 28.75V20C29.25 19.6685 29.3817 19.3505 29.6161 19.1161C29.8505 18.8817 30.1685 18.75 30.5 18.75ZM31.75 25.625C31.75 25.3487 31.8413 25.0725 32.025 24.8438L34.525 21.7188C34.7359 21.4718 35.0346 21.3166 35.3579 21.286C35.6813 21.2554 36.0038 21.3519 36.2572 21.555C36.5107 21.7581 36.6751 22.0518 36.7158 22.374C36.7564 22.6962 36.6701 23.0216 36.475 23.2812L34.6 25.625L36.475 27.9688C36.5837 28.0961 36.6658 28.244 36.7162 28.4036C36.7667 28.5633 36.7846 28.7314 36.7689 28.8981C36.7531 29.0648 36.704 29.2266 36.6245 29.374C36.545 29.5214 36.4367 29.6512 36.306 29.7559C36.1754 29.8606 36.025 29.938 35.8639 29.9835C35.7027 30.029 35.5341 30.0416 35.368 30.0206C35.2018 29.9997 35.0416 29.9456 34.8968 29.8615C34.752 29.7774 34.6256 29.6651 34.525 29.5312L32.025 26.4062C31.8472 26.1847 31.7502 25.9091 31.75 25.625Z" fill="black" fill-opacity="0.2"/>
<rect x="26.9365" y="18.2979" width="12.1277" height="13.4043" fill="#181600"/>
</svg>
