<svg width="124" height="91" viewBox="0 0 124 91" fill="none" xmlns="http://www.w3.org/2000/svg">
<path d="M123.071 30.1075C123.071 13.4781 109.566 0 92.9027 0H53.9858C27.7899 0 5.84439 23.0539 3.20007 53.3538L2.60158 60.218H2.62906L0 90.3255H17.6492L19.5088 69.0243H19.4813C19.4813 66.9754 19.7836 64.8807 20.0035 62.844C20.2172 60.8715 20.4768 58.902 20.7943 56.9416C21.3775 53.3263 22.147 49.7354 23.1852 46.2086C24.1104 43.0604 25.2524 39.9611 26.6906 36.984C27.9792 34.3152 29.509 31.7381 31.3442 29.3563C33.0266 27.1731 34.9717 25.1547 37.1855 23.4173C39.6313 21.4966 42.4039 19.9271 45.378 18.8065C47.775 17.9027 50.3888 17.1576 52.9965 17.1576H105.853C105.874 17.1576 105.892 17.179 105.892 17.2065C105.892 25.9639 97.7608 35.6343 88.872 38.1504C81.6078 40.2054 72.7954 37.2832 66.1388 41.4421C62.444 43.7475 60.7402 47.9979 60.7402 52.2301H103.648C103.669 52.2301 103.688 52.2514 103.688 52.2789C103.688 63.7692 92.5454 73.171 82.6643 73.171H52.856C44.6177 73.171 37.8115 80.6459 37.3443 90.2064L37.3382 90.3286H90.3072C106.967 90.3286 120.476 76.8474 120.476 60.2211C120.476 55.6347 119.447 51.2896 117.609 47.3994C121.053 42.5077 123.077 36.5443 123.077 30.1105L123.071 30.1075Z" fill="#21C5A7"/>
</svg>
