<svg width="157" height="40" viewBox="0 0 157 40" fill="none" xmlns="http://www.w3.org/2000/svg">
<g clip-path="url(#clip0_3391_5430)">
<path d="M69.7178 7.52637H77.3799C82.1315 7.52637 85.7595 8.93425 85.7595 13.2459C85.7595 15.3713 84.5683 17.5575 82.5986 18.248V18.4036C85.103 18.9993 86.9441 20.7456 86.9441 23.8727C86.9441 28.5296 83.0656 30.6888 77.9688 30.6888H69.7178V7.52637ZM77.0347 16.9687C79.9723 16.9687 81.2584 15.7774 81.2584 13.9363C81.2584 11.9057 79.8843 11.0935 77.1024 11.0935H74.3543V16.9687H77.0415H77.0347ZM77.5694 27.1285C80.7304 27.1285 82.4497 26.0049 82.4497 23.5952C82.4497 21.3412 80.7643 20.3733 77.5694 20.3733H74.3475V27.1285H77.5694Z" fill="#21C5A7"/>
<path d="M89.543 21.937C89.543 16.2784 93.5433 12.7451 97.706 12.7451C102.519 12.7451 105.023 16.2784 105.023 21.0909C105.023 21.9641 104.928 22.8101 104.806 23.2163H94.0171C94.3893 26.093 96.271 27.5956 98.8634 27.5956C100.298 27.5956 101.551 27.1556 102.803 26.3772L104.366 29.193C102.647 30.3843 100.427 31.1288 98.2678 31.1288C93.3605 31.1288 89.543 27.7242 89.543 21.937ZM101.077 20.1568C101.077 17.8149 100.014 16.3122 97.7601 16.3122C95.9123 16.3122 94.2878 17.6253 93.9426 20.1568H101.07H101.077Z" fill="#21C5A7"/>
<path d="M123.441 7.52637H127.603C127.603 9.66527 125.871 11.4048 123.725 11.4048C120.55 11.4048 117.972 13.9837 117.972 17.1582V17.4425H126.196C126.196 19.5814 124.463 21.3209 122.317 21.3209H117.972V30.7023H113.342V17.632C113.342 12.0546 117.863 7.53314 123.441 7.53314V7.52637Z" fill="#21C5A7"/>
<path d="M131.266 25.7823V5.74023H135.862V25.9718C135.862 27.0345 136.329 27.3797 136.769 27.3797C136.958 27.3797 137.08 27.3797 137.391 27.3188L137.953 30.7234C137.418 30.94 136.674 31.1296 135.577 31.1296C132.389 31.1296 131.266 29.038 131.266 25.7823Z" fill="#21C5A7"/>
<path d="M140.234 37.3836L141.08 33.8503C141.391 33.9451 141.892 34.0669 142.298 34.0669C144.078 34.0669 145.08 32.9433 145.581 31.4068L145.892 30.378L139.076 13.1855H143.706L146.488 21.3147C147.023 22.8783 147.456 24.5637 147.957 26.2559H148.112C148.518 24.6314 148.958 22.9392 149.365 21.3147L151.774 13.1855H156.181L149.96 31.2241C148.43 35.353 146.556 37.7288 142.643 37.7288C141.614 37.7288 140.924 37.6069 140.234 37.3836Z" fill="#21C5A7"/>
<path d="M54.549 13.1448C54.549 5.88198 48.6535 0 41.3772 0H24.3878C12.9555 0 3.37106 10.065 2.21362 23.291L1.94964 26.2895H1.96318L0.8125 39.4343H8.51526L9.3275 30.1342H9.31396C9.31396 29.2407 9.44256 28.3269 9.5441 27.4335C9.63886 26.5738 9.75392 25.7142 9.8893 24.8546C10.1465 23.2775 10.4782 21.7072 10.9317 20.1707C11.3378 18.7966 11.8319 17.4429 12.4614 16.1433C13.0232 14.9791 13.6933 13.8555 14.492 12.8131C15.2298 11.8587 16.0759 10.9788 17.0438 10.2207C18.1132 9.38139 19.3248 8.69775 20.6177 8.21041C21.6668 7.81782 22.8039 7.49293 23.9411 7.49293H47.0155C47.0155 7.49293 47.0358 7.4997 47.0358 7.51323C47.0358 11.3375 43.4822 15.5612 39.6038 16.6577C36.4293 17.558 32.5847 16.2787 29.6809 18.0927C28.07 19.1012 27.3254 20.9558 27.3254 22.8037H46.0611C46.0611 22.8037 46.0814 22.8104 46.0814 22.824C46.0814 27.8396 41.2147 31.9482 36.9031 31.9482H23.8869C20.2928 31.9482 17.3213 35.2107 17.1115 39.3869V39.4411H40.2333C47.5096 39.4411 53.4051 33.5523 53.4051 26.2963C53.4051 24.2928 52.9584 22.3976 52.1529 20.6986C53.6556 18.5597 54.5423 15.9605 54.5423 13.1515L54.549 13.1448Z" fill="#21C5A7"/>
</g>
<defs>
<clipPath id="clip0_3391_5430">
<rect width="155.361" height="39.4343" fill="white" transform="translate(0.819336)"/>
</clipPath>
</defs>
</svg>
