<svg width="240" height="153" viewBox="0 0 240 153" fill="none" xmlns="http://www.w3.org/2000/svg">
<path d="M0 8C0 3.58172 3.58172 0 8 0H232C236.418 0 240 3.58172 240 8V153H0V8Z" fill="#D9D9D9"/>
<path d="M159 66.9967C159 56.5006 150.442 48 139.881 48H115.22C98.6259 48 84.7138 62.5459 83.0338 81.66L82.6506 85.9935H82.6702L81 104.99H92.1808L93.3597 91.5497H93.3401C93.3401 90.2585 93.5268 88.9379 93.6741 87.6466C93.8117 86.4043 93.9787 85.162 94.1752 83.9197C94.5486 81.6405 95.03 79.371 95.6882 77.1505C96.2777 75.1647 96.995 73.2083 97.9087 71.3302C98.7241 69.6477 99.6968 68.0239 100.856 66.5174C101.927 65.1382 103.155 63.8665 104.56 62.7709C106.112 61.5579 107.871 60.5699 109.748 59.8656C111.271 59.2983 112.921 58.8287 114.572 58.8287H148.065C148.065 58.8287 148.094 58.8385 148.094 58.8581C148.094 64.3849 142.936 70.4889 137.307 72.0736C132.699 73.3746 127.118 71.5258 122.903 74.1474C120.565 75.6049 119.484 78.2852 119.484 80.9557H146.68C146.68 80.9557 146.709 80.9655 146.709 80.9851C146.709 88.2336 139.645 94.1713 133.386 94.1713H114.493C109.276 94.1713 104.963 98.8862 104.658 104.922V105H138.22C148.782 105 157.34 96.4896 157.34 86.0033C157.34 83.1078 156.691 80.3688 155.522 77.9135C157.703 74.8224 158.99 71.0661 158.99 67.0065L159 66.9967Z" fill="#F0F0F0"/>
</svg>
