<svg width="124" height="150" viewBox="0 0 124 150" fill="none" xmlns="http://www.w3.org/2000/svg">
<g clip-path="url(#clip0_3391_2583)">
<path d="M2.83398 108.991H13.2342C19.6862 108.991 24.6115 110.903 24.6115 116.759C24.6115 119.645 22.9993 122.619 20.3244 123.55V123.764C23.7199 124.57 26.2238 126.949 26.2238 131.193C26.2238 137.52 20.9595 140.448 14.0403 140.448H2.83398V108.991ZM12.767 121.81C16.7579 121.81 18.4984 120.198 18.4984 117.691C18.4984 114.93 16.6297 113.828 12.8525 113.828H9.11808V121.81H12.7701H12.767ZM13.4907 135.609C17.7778 135.609 20.1137 134.079 20.1137 130.811C20.1137 127.755 17.8205 126.439 13.4907 126.439H9.11808V135.609H13.4907Z" fill="#21C5A7"/>
<path d="M29.75 128.562C29.75 120.879 35.1852 116.079 40.8311 116.079C47.3687 116.079 50.7642 120.876 50.7642 127.414C50.7642 128.601 50.6359 129.75 50.468 130.299H35.8204C36.3303 134.205 38.8769 136.241 42.4006 136.241C44.3549 136.241 46.0526 135.646 47.7504 134.586L49.8725 138.406C47.5366 140.019 44.5228 141.038 41.5945 141.038C34.9287 141.038 29.75 136.412 29.75 128.559V128.562ZM45.4144 126.14C45.4144 122.956 43.9701 120.919 40.9136 120.919C38.4097 120.919 36.202 122.702 35.7349 126.14H45.4144Z" fill="#21C5A7"/>
<path d="M75.7844 108.991H81.4334C81.4334 111.898 79.0761 114.255 76.1692 114.255C71.8546 114.255 68.3583 117.752 68.3583 122.066V122.448H79.5219C79.5219 125.355 77.1646 127.712 74.2577 127.712H68.3583V140.448H62.0742V122.698C62.0742 115.129 68.2117 108.991 75.7814 108.991H75.7844Z" fill="#21C5A7"/>
<path d="M86.4015 133.783V106.57H92.6428V134.037C92.6428 135.481 93.281 135.948 93.8734 135.948C94.1268 135.948 94.2978 135.948 94.7223 135.863L95.4856 140.489C94.765 140.785 93.7452 141.041 92.2581 141.041C87.9282 141.041 86.3984 138.195 86.3984 133.783H86.4015Z" fill="#21C5A7"/>
<path d="M98.5852 149.533L99.7303 144.736C100.155 144.864 100.836 145.032 101.385 145.032C103.804 145.032 105.162 143.505 105.843 141.423L106.268 140.021L97.0127 116.671H103.297L107.074 127.709C107.795 129.831 108.39 132.125 109.068 134.418H109.282C109.834 132.21 110.427 129.917 110.979 127.709L114.247 116.671H120.231L111.782 141.166C109.703 146.769 107.156 149.997 101.849 149.997C100.448 149.997 99.5135 149.826 98.5791 149.53L98.5852 149.533Z" fill="#21C5A7"/>
<path d="M123.071 30.1075C123.071 13.4781 109.566 0 92.9027 0H53.9858C27.7899 0 5.84439 23.0539 3.20007 53.3538L2.60158 60.218H2.62906L0 90.3255H17.6492L19.5088 69.0243H19.4813C19.4813 66.9754 19.7836 64.8807 20.0035 62.844C20.2172 60.8715 20.4768 58.902 20.7943 56.9416C21.3775 53.3263 22.147 49.7354 23.1852 46.2086C24.1104 43.0604 25.2524 39.9611 26.6906 36.984C27.9792 34.3152 29.509 31.7381 31.3442 29.3563C33.0266 27.1731 34.9717 25.1547 37.1855 23.4173C39.6313 21.4966 42.4039 19.9271 45.378 18.8065C47.775 17.9027 50.3888 17.1576 52.9965 17.1576H105.853C105.874 17.1576 105.892 17.179 105.892 17.2065C105.892 25.9639 97.7608 35.6343 88.872 38.1504C81.6078 40.2054 72.7954 37.2832 66.1388 41.4421C62.444 43.7475 60.7402 47.9979 60.7402 52.2301H103.648C103.669 52.2301 103.688 52.2514 103.688 52.2789C103.688 63.7692 92.5454 73.171 82.6643 73.171H52.856C44.6177 73.171 37.8115 80.6459 37.3443 90.2064L37.3382 90.3286H90.3072C106.967 90.3286 120.476 76.8474 120.476 60.2211C120.476 55.6347 119.447 51.2896 117.609 47.3994C121.053 42.5077 123.077 36.5443 123.077 30.1105L123.071 30.1075Z" fill="#21C5A7"/>
</g>
<defs>
<clipPath id="clip0_3391_2583">
<rect width="123.071" height="150" fill="white"/>
</clipPath>
</defs>
</svg>
